#!OML:ASF X:\2005_08_12_Meinard\c3d\meinard.ASF
:FULLY-SPECIFIED
:DEGREES
1
root 4.29972 16.9556 0.81136 121.712 -86.4965 -139.225
lowerback 28.5298 -1.72292 1.15386
upperback 0.826991 -2.00213 0.580061
thorax -14.2473 -1.04008 0.786249
lowerneck -15.4562 -2.54156 -4.07391
upperneck 10.9717 -3.17435 4.30646
head 5.98501 -1.37792 1.72575
rclavicle -7.40822e-015 2.62147e-015
rhumerus -21.8506 -39.7907 4.26719
rradius 7.92699
rwrist 41.3775
rhand -9.19574 -5.48298
rfingers 7.12502
rthumb 16.758 -34.7797
lclavicle -7.40822e-015 2.62147e-015
lhumerus -60.052 72.5869 -48.4054
lradius 5.99663
lwrist -72.9006
lhand -17.4063 -5.63675
lfingers 7.12502
lthumb 8.84327 24.158
rfemur 19.2841 3.46933 14.0822
rtibia 15.5917
rfoot -15.8994 -6.89077
rtoes -20.8618
lfemur 12.1251 -10.1839 -15.3121
ltibia 29.1345
lfoot -21.9651 13.5333
ltoes -21.6571
2
root 4.30051 16.9552 0.811401 121.725 -86.5025 -139.252
lowerback 28.5396 -1.71873 1.13523
upperback 0.843792 -2.0049 0.571945
thorax -14.2322 -1.04086 0.788648
lowerneck -15.4717 -2.53307 -4.0225
upperneck 10.9532 -3.16884 4.27924
head 5.9802 -1.37504 1.70915
rclavicle -1.64424e-015 -2.58172e-014
rhumerus -21.8823 -39.8191 4.25174
rradius 7.95105
rwrist 41.388
rhand -9.1944 -5.51264
rfingers 7.12502
rthumb 16.7593 -34.8093
lclavicle -1.64424e-015 -2.58172e-014
lhumerus -60.1804 72.5785 -48.5222
lradius 6.02074
lwrist -72.8905
lhand -17.3948 -5.63596
lfingers 7.12502
lthumb 8.85441 24.1583
rfemur 19.2938 3.45498 14.0684
rtibia 15.5975
rfoot -15.8992 -6.87438
rtoes -20.8627
lfemur 12.13 -10.1782 -15.3164
ltibia 29.1375
lfoot -21.9574 13.5267
ltoes -21.6633
3
root 4.30038 16.9548 0.811565 121.694 -86.5025 -139.243
lowerback 28.5519 -1.71192 1.11299
upperback 0.855567 -2.00335 0.576117
thorax -14.2235 -1.03896 0.804824
lowerneck -15.4854 -2.52174 -3.97981
upperneck 10.9576 -3.15591 4.23516
head 5.98186 -1.37019 1.68934
rclavicle 5.63159e-015 -7.71533e-015
rhumerus -21.8834 -39.8299 4.24938
rradius 7.95888
rwrist 41.3637
rhand -9.20404 -5.57333
rfingers 7.12502
rthumb 16.75 -34.8708
lclavicle 5.63159e-015 -7.71533e-015
lhumerus -60.2442 72.569 -48.5754
lradius 6.03428
lwrist -72.8906
lhand -17.3399 -5.61069
lfingers 7.12502
lthumb 8.90731 24.1813
rfemur 19.3129 3.45577 14.0683
rtibia 15.6062
rfoot -15.9056 -6.87181
rtoes -20.8628
lfemur 12.1533 -10.1787 -15.3206
ltibia 29.1378
lfoot -21.9595 13.5254
ltoes -21.6628
4
root 4.30104 16.9543 0.81163 121.658 -86.5103 -139.217
lowerback 28.5702 -1.70964 1.08051
upperback 0.856264 -2.01073 0.577695
thorax -14.2303 -1.04013 0.827611
lowerneck -15.4772 -2.50736 -3.93323
upperneck 10.9513 -3.1427 4.20774
head 5.97671 -1.3641 1.6744
rclavicle -4.64737e-015 1.40081e-014
rhumerus -21.9032 -39.8257 4.24218
rradius 7.98838
rwrist 41.3661
rhand -9.22284 -5.60473
rfingers 7.12502
rthumb 16.7319 -34.9037
lclavicle -4.64737e-015 1.40081e-014
lhumerus -60.3145 72.5513 -48.6276
lradius 6.06636
lwrist -72.8902
lhand -17.3502 -5.55503
lfingers 7.12502
lthumb 8.89745 24.2374
rfemur 19.3242 3.44913 14.0605
rtibia 15.6075
rfoot -15.8893 -6.88448
rtoes -20.8019
lfemur 12.1593 -10.1695 -15.3216
ltibia 29.1408
lfoot -21.9414 13.509
ltoes -21.5937
5
root 4.30139 16.9542 0.811471 121.722 -86.5302 -139.293
lowerback 28.5805 -1.70446 1.04923
upperback 0.86941 -2.01662 0.565868
thorax -14.2194 -1.04148 0.83418
lowerneck -15.5194 -2.49913 -3.87857
upperneck 10.9522 -3.13757 4.17754
head 5.98245 -1.36111 1.6561
rclavicle -2.46598e-015 9.38015e-015
rhumerus -21.9212 -39.8483 4.23189
rradius 7.98534
rwrist 41.3408
rhand -9.24612 -5.60729
rfingers 7.12502
rthumb 16.7095 -34.9081
lclavicle -2.46598e-015 9.38015e-015
lhumerus -60.3906 72.5589 -48.7006
lradius 6.08356
lwrist -72.8818
lhand -17.333 -5.52016
lfingers 7.12502
lthumb 8.91402 24.2715
rfemur 19.3378 3.45282 14.0444
rtibia 15.6077
rfoot -15.8926 -6.89289
rtoes -20.7964
lfemur 12.1602 -10.1652 -15.3378
ltibia 29.1426
lfoot -21.9317 13.4998
ltoes -21.6003
6
root 4.30195 16.9542 0.811494 121.598 -86.5039 -139.181
lowerback 28.5826 -1.69706 1.04769
upperback 0.885984 -2.00694 0.576817
thorax -14.2007 -1.03726 0.842885
lowerneck -15.53 -2.49352 -3.83775
upperneck 10.9423 -3.13258 4.14005
head 5.97954 -1.35977 1.63794
rclavicle -1.49498e-014 2.38542e-015
rhumerus -21.9452 -39.8663 4.24884
rradius 8.00477
rwrist 41.3181
rhand -9.24765 -5.6191
rfingers 7.12502
rthumb 16.708 -34.9201
lclavicle -1.49498e-014 2.38542e-015
lhumerus -60.5401 72.54 -48.817
lradius 6.12312
lwrist -72.9041
lhand -17.2995 -5.51466
lfingers 7.12502
lthumb 8.94633 24.2757
rfemur 19.346 3.46059 14.0746
rtibia 15.6056
rfoot -15.8871 -6.8945
rtoes -20.7967
lfemur 12.1699 -10.1516 -15.3063
ltibia 29.1485
lfoot -21.9342 13.4893
ltoes -21.6004
